<svg width="32" height="32" viewBox="0 0 24 24" fill="none" xmlns="http://www.w3.org/2000/svg">
  <path
    d="M15.96 10.83H12.9L12.14 13.12H14.43C15.27 13.12 15.96 13.8 15.96 14.65C15.96 15.49 15.28 16.18 14.43 16.18H12.14"
    stroke="#292D32" stroke-width="1.5" stroke-linecap="round" stroke-linejoin="round" />
  <path d="M9.53998 16.17V10.83L8.03998 12.5" stroke="#292D32" stroke-width="1.5"
    stroke-linecap="round" stroke-linejoin="round" />
  <path d="M10.02 4.46997L12 2" stroke="#292D32" stroke-width="1.5" stroke-linecap="round"
    stroke-linejoin="round" />
  <path
    d="M4.90997 7.79974C3.79997 9.27974 3.10999 11.1097 3.10999 13.1097C3.10999 18.0197 7.09 21.9998 12 21.9998C16.91 21.9998 20.89 18.0197 20.89 13.1097C20.89 8.19974 16.91 4.21973 12 4.21973C11.32 4.21973 10.66 4.30978 10.02 4.45978"
    stroke="#292D32" stroke-width="1.5" stroke-linecap="round" stroke-linejoin="round" />
</svg>
