<svg width="20" height="20" viewBox="0 0 20 20" fill="none" xmlns="http://www.w3.org/2000/svg">
  <path
    d="M7.49996 18.3334H12.5C16.6666 18.3334 18.3333 16.6667 18.3333 12.5001V7.50008C18.3333 3.33341 16.6666 1.66675 12.5 1.66675H7.49996C3.33329 1.66675 1.66663 3.33341 1.66663 7.50008V12.5001C1.66663 16.6667 3.33329 18.3334 7.49996 18.3334Z"
    stroke="currentColor" stroke-width="1.5" stroke-linecap="round" stroke-linejoin="round" />
  <path
    d="M10.5 15.4167H13.6667C14.9167 15.4167 15.4167 14.9167 15.4167 13.6667V12.1667C15.4167 10.9167 14.9167 10.4167 13.6667 10.4167H10.5C9.25 10.4167 8.75 10.9167 8.75 12.1667V13.6667C8.75 14.9167 9.25 15.4167 10.5 15.4167Z"
    stroke="currentColor" stroke-width="1.5" stroke-linecap="round" stroke-linejoin="round" />
</svg>
