<svg width="44" height="44" viewBox="0 0 44 44" fill="none" xmlns="http://www.w3.org/2000/svg">
  <rect width="44" height="44" rx="10" fill="#546FFF" />
  <path
    d="M26.14 12.96L17.11 15.96C11.04 17.99 11.04 21.3 17.11 23.32L19.79 24.21L20.68 26.89C22.7 32.96 26.02 32.96 28.04 26.89L31.05 17.87C32.39 13.82 30.19 11.61 26.14 12.96ZM26.46 18.34L22.66 22.16C22.51 22.31 22.32 22.38 22.13 22.38C21.94 22.38 21.75 22.31 21.6 22.16C21.31 21.87 21.31 21.39 21.6 21.1L25.4 17.28C25.69 16.99 26.17 16.99 26.46 17.28C26.75 17.57 26.75 18.05 26.46 18.34Z"
    fill="white" />
</svg>
