<svg width="20" height="20" viewBox="0 0 20 20" fill="none" xmlns="http://www.w3.org/2000/svg">
  <path
    d="M1.66663 8.33332V11.6667C1.66663 13.3333 2.49996 14.1667 4.16663 14.1667H5.35829C5.66663 14.1667 5.97496 14.2583 6.24163 14.4167L8.67496 15.9417C10.775 17.2583 12.5 16.3 12.5 13.825V6.17499C12.5 3.69165 10.775 2.74165 8.67496 4.05832L6.24163 5.58332C5.97496 5.74165 5.66663 5.83332 5.35829 5.83332H4.16663C2.49996 5.83332 1.66663 6.66665 1.66663 8.33332Z"
    stroke="currentColor" stroke-width="1.5" />
  <path d="M15 6.66675C16.4833 8.64175 16.4833 11.3584 15 13.3334" stroke="currentColor"
    stroke-width="1.5" stroke-linecap="round" stroke-linejoin="round" />
  <path d="M16.525 4.58325C18.9334 7.79159 18.9334 12.2083 16.525 15.4166" stroke="currentColor"
    stroke-width="1.5" stroke-linecap="round" stroke-linejoin="round" />
</svg>
